<svg width="300" height="150" viewBox="0 0 300 150" fill="none" xmlns="http://www.w3.org/2000/svg">
<g filter="url(#filter0_d_1018_3798)">
<path d="M11.5918 60.008C11.5918 54.824 12.9358 50.92 15.6238 48.296C18.3118 45.672 21.5118 44.36 25.2238 44.36C28.9998 44.36 34.1198 45 40.5838 46.28C47.0478 47.56 51.9118 48.232 55.1758 48.296C60.6158 47.272 65.7998 46.024 70.7278 44.552C71.2398 46.216 71.4958 48.296 71.4958 50.792C71.4958 55.976 69.9918 59.88 66.9838 62.504C64.0398 65.128 60.2638 66.44 55.6558 66.44C54.5038 66.44 52.9678 66.376 51.0478 66.248C47.5278 84.744 45.7678 95.08 45.7678 97.256C45.7678 103.464 46.7278 108.104 48.6478 111.176C44.8078 114.056 40.8078 115.496 36.6478 115.496C32.4878 115.496 29.5118 114.312 27.7198 111.944C25.9278 109.512 25.0318 105.928 25.0318 101.192C25.0318 96.392 26.8878 83.656 30.5998 62.984C23.3678 63.944 17.2878 65.032 12.3598 66.248C11.8478 64.648 11.5918 62.568 11.5918 60.008ZM69.8375 83.624C69.8375 71.464 73.2295 61.736 80.0135 54.44C86.7975 47.08 96.0775 43.4 107.854 43.4C111.63 43.4 114.318 44.168 115.917 45.704C117.582 47.176 118.414 49.48 118.414 52.616C118.414 53.064 118.35 53.928 118.222 55.208C120.59 53.288 123.214 52.328 126.094 52.328C129.998 52.328 133.326 54.088 136.078 57.608C138.894 61.064 140.302 66.088 140.302 72.68C140.302 79.272 139.246 85.32 137.134 90.824C135.022 96.328 132.206 100.84 128.686 104.36C125.23 107.88 121.262 110.6 116.781 112.52C112.366 114.44 107.79 115.4 103.054 115.4C92.8135 115.4 84.7175 112.488 78.7655 106.664C72.8135 100.776 69.8375 93.096 69.8375 83.624ZM117.742 88.136C113.646 83.144 111.598 77.768 111.598 72.008C111.598 66.248 112.878 61.608 115.438 58.088C114.286 57.896 113.134 57.8 111.982 57.8C107.438 57.8 103.502 59.176 100.174 61.928C93.9015 67.048 90.7655 74.152 90.7655 83.24C90.7655 88.424 91.9175 92.744 94.2215 96.2C96.5255 99.656 99.7255 101.384 103.822 101.384C106.958 101.384 109.806 100.168 112.366 97.736C114.99 95.24 116.782 92.04 117.742 88.136ZM147.541 97.352C147.541 93.704 148.405 87.272 150.133 78.056C151.861 68.84 152.917 63.016 153.301 60.584L148.213 50.312C156.341 45.704 163.253 43.4 168.949 43.4C171.765 43.4 173.877 44.36 175.285 46.28C180.597 44.424 185.493 43.496 189.973 43.496C198.293 43.496 204.757 46.216 209.365 51.656C213.973 57.032 216.277 63.752 216.277 71.816C216.277 82.44 212.373 92.2 204.565 101.096C200.789 105.384 195.797 108.84 189.589 111.464C183.445 114.088 176.853 115.4 169.813 115.4C162.773 115.4 157.301 113.864 153.397 110.792C149.493 107.656 147.541 103.176 147.541 97.352ZM167.893 101C169.237 101.256 170.741 101.384 172.405 101.384C179.381 101.384 184.821 98.888 188.725 93.896C192.629 88.84 194.581 82.632 194.581 75.272C194.581 69.32 193.237 64.584 190.549 61.064C187.861 57.544 183.989 55.784 178.933 55.784C178.165 55.784 176.885 55.912 175.093 56.168C174.645 59.432 173.461 66.728 171.541 78.056C169.685 89.32 168.469 96.968 167.893 101ZM218.713 83.624C218.713 71.464 222.105 61.736 228.889 54.44C235.673 47.08 244.953 43.4 256.729 43.4C260.505 43.4 263.193 44.168 264.792 45.704C266.457 47.176 267.289 49.48 267.289 52.616C267.289 53.064 267.225 53.928 267.097 55.208C269.465 53.288 272.089 52.328 274.969 52.328C278.873 52.328 282.201 54.088 284.953 57.608C287.769 61.064 289.177 66.088 289.177 72.68C289.177 79.272 288.121 85.32 286.009 90.824C283.897 96.328 281.081 100.84 277.561 104.36C274.105 107.88 270.137 110.6 265.656 112.52C261.241 114.44 256.665 115.4 251.929 115.4C241.689 115.4 233.593 112.488 227.641 106.664C221.689 100.776 218.713 93.096 218.713 83.624ZM266.617 88.136C262.521 83.144 260.473 77.768 260.473 72.008C260.473 66.248 261.753 61.608 264.312 58.088C263.161 57.896 262.009 57.8 260.857 57.8C256.313 57.8 252.377 59.176 249.049 61.928C242.777 67.048 239.641 74.152 239.641 83.24C239.641 88.424 240.793 92.744 243.097 96.2C245.401 99.656 248.601 101.384 252.697 101.384C255.833 101.384 258.681 100.168 261.241 97.736C263.865 95.24 265.657 92.04 266.617 88.136Z" fill="url(#paint0_linear_1018_3798)"/>
</g>
<defs>
<filter id="filter0_d_1018_3798" x="8.5918" y="41.4" width="285.585" height="80.0959" filterUnits="userSpaceOnUse" color-interpolation-filters="sRGB">
<feFlood flood-opacity="0" result="BackgroundImageFix"/>
<feColorMatrix in="SourceAlpha" type="matrix" values="0 0 0 0 0 0 0 0 0 0 0 0 0 0 0 0 0 0 127 0" result="hardAlpha"/>
<feOffset dx="1" dy="2"/>
<feGaussianBlur stdDeviation="2"/>
<feComposite in2="hardAlpha" operator="out"/>
<feColorMatrix type="matrix" values="0 0 0 0 0 0 0 0 0 0 0 0 0 0 0 0 0 0 0.5 0"/>
<feBlend mode="normal" in2="BackgroundImageFix" result="effect1_dropShadow_1018_3798"/>
<feBlend mode="normal" in="SourceGraphic" in2="effect1_dropShadow_1018_3798" result="shape"/>
</filter>
<linearGradient id="paint0_linear_1018_3798" x1="10" y1="79.2857" x2="291" y2="79.2857" gradientUnits="userSpaceOnUse">
<stop offset="0.276042" stop-color="#6034D6"/>
<stop offset="1" stop-color="#7A55DC"/>
</linearGradient>
</defs>
</svg>
