<svg width="486" height="400" viewBox="0 0 486 400" fill="none" xmlns="http://www.w3.org/2000/svg">
<path fill-rule="evenodd" clip-rule="evenodd" d="M224.062 5.07438C291.175 1.09545 364.609 -11.5569 414.012 28.3711C470.688 74.1766 499.245 146.587 480.036 211.954C461.285 275.763 389.005 308.696 322.53 339.686C250.729 373.16 171.238 420.801 97.8103 390.146C24.2575 359.439 7.95598 276.42 0.889096 205.406C-4.87199 147.514 17.5072 90.7515 63.8745 49.1298C104.971 12.2397 165.307 8.55777 224.062 5.07438Z" fill="#C0E7DD"/>
<path d="M257.57 74.0829H170.315C168.327 74.0853 166.421 74.8762 165.015 76.2822C163.609 77.6882 162.818 79.5945 162.815 81.5829V275.508L161.815 275.813L140.41 282.368C139.396 282.677 138.3 282.571 137.364 282.074C136.427 281.576 135.726 280.727 135.415 279.713L71.7452 71.7379C71.4353 70.7234 71.5409 69.6274 72.0388 68.6908C72.5366 67.7542 73.386 67.0535 74.4002 66.7429L235.995 17.2728C236.497 17.1184 237.025 17.0644 237.548 17.114C238.07 17.1636 238.578 17.3158 239.042 17.562C239.506 17.8081 239.917 18.1433 240.251 18.5484C240.586 18.9535 240.837 19.4206 240.99 19.9228L257.265 73.0829L257.57 74.0829Z" fill="#F2F2F2"/>
<path d="M256.995 9.01285C256.669 7.94532 256.135 6.95256 255.425 6.0913C254.715 5.23004 253.842 4.51715 252.856 3.99338C251.87 3.46961 250.791 3.14521 249.68 3.03874C248.569 2.93226 247.447 3.0458 246.38 3.37285L58.0103 61.0429C55.856 61.7044 54.0521 63.1937 52.9947 65.1838C51.9373 67.1739 51.7126 69.5023 52.3702 71.6579L119.41 290.623C119.944 292.363 121.022 293.886 122.485 294.968C123.949 296.051 125.72 296.636 127.54 296.638C128.383 296.638 129.22 296.512 130.025 296.263L161.815 286.533L162.815 286.223V285.178L161.815 285.483L129.73 295.308C127.829 295.888 125.775 295.689 124.019 294.757C122.264 293.824 120.949 292.233 120.365 290.333L53.3304 71.3629C53.0409 70.4213 52.94 69.4319 53.0335 68.4513C53.127 67.4708 53.4129 66.5182 53.875 65.6483C54.3371 64.7784 54.9663 64.0082 55.7265 63.3818C56.4867 62.7554 57.363 62.2851 58.3052 61.9979L246.675 4.32786C247.39 4.10975 248.133 3.99855 248.88 3.99785C250.484 4.00145 252.044 4.51843 253.332 5.47307C254.621 6.4277 255.57 7.76982 256.04 9.30285L275.565 73.0829L275.875 74.0829H276.915L256.995 9.01285Z" fill="#3F3D56"/>
<path d="M113.338 66.9063C112.374 66.9057 111.436 66.5962 110.661 66.0232C109.886 65.4503 109.315 64.6441 109.032 63.723L102.592 42.6871C102.419 42.122 102.359 41.5284 102.415 40.9402C102.471 40.3519 102.643 39.7805 102.92 39.2586C103.198 38.7367 103.575 38.2745 104.031 37.8985C104.487 37.5225 105.012 37.2399 105.577 37.067L193.547 10.1351C194.688 9.78686 195.921 9.90563 196.974 10.4653C198.028 11.025 198.817 11.9799 199.167 13.1204L205.607 34.1566C205.955 35.2978 205.837 36.5304 205.277 37.5841C204.717 38.6377 203.762 39.4263 202.622 39.7769L114.652 66.7088C114.226 66.8396 113.783 66.9061 113.338 66.9063Z" fill="#43B699"/>
<path d="M147.074 25.4733C152.597 25.4733 157.074 20.9961 157.074 15.4733C157.074 9.95041 152.597 5.47326 147.074 5.47326C141.551 5.47326 137.074 9.95041 137.074 15.4733C137.074 20.9961 141.551 25.4733 147.074 25.4733Z" fill="#43B699"/>
<path d="M147.074 21.8056C150.571 21.8056 153.406 18.9705 153.406 15.4733C153.406 11.976 150.571 9.14095 147.074 9.14095C143.577 9.14095 140.742 11.976 140.742 15.4733C140.742 18.9705 143.577 21.8056 147.074 21.8056Z" fill="white"/>
<path d="M353.315 294.083H184.315C183.189 294.082 182.108 293.633 181.312 292.837C180.515 292.04 180.067 290.96 180.065 289.833V87.3329C180.067 86.2061 180.515 85.1258 181.312 84.329C182.108 83.5323 183.189 83.0841 184.315 83.0829H353.315C354.442 83.0842 355.522 83.5323 356.319 84.3291C357.116 85.1258 357.564 86.2061 357.565 87.3329V289.833C357.564 290.96 357.116 292.04 356.319 292.837C355.522 293.633 354.442 294.082 353.315 294.083Z" fill="#E6E6E6"/>
<path d="M275.565 73.0829L170.315 73.0829C168.062 73.086 165.902 73.9826 164.308 75.576C162.715 77.1693 161.818 79.3295 161.815 81.5829V285.483L162.815 285.178L162.815 81.5829C162.818 79.5945 163.609 77.6882 165.015 76.2822C166.421 74.8762 168.327 74.0853 170.315 74.0829L275.875 74.0829L275.565 73.0829ZM367.315 73.0829H170.315C168.062 73.086 165.902 73.9826 164.308 75.576C162.715 77.1693 161.818 79.3295 161.815 81.5829V310.583C161.818 312.836 162.715 314.996 164.308 316.59C165.902 318.183 168.062 319.08 170.315 319.083H367.315C369.569 319.08 371.729 318.183 373.322 316.59C374.915 314.996 375.812 312.836 375.815 310.583V81.5829C375.812 79.3295 374.915 77.1693 373.322 75.576C371.729 73.9826 369.569 73.086 367.315 73.0829ZM374.815 310.583C374.813 312.571 374.022 314.478 372.616 315.884C371.21 317.29 369.304 318.08 367.315 318.083H170.315C168.327 318.08 166.421 317.29 165.015 315.884C163.609 314.478 162.818 312.571 162.815 310.583L162.815 81.5829C162.818 79.5945 163.609 77.6882 165.015 76.2822C166.421 74.8762 168.327 74.0853 170.315 74.0829H367.315C369.304 74.0853 371.21 74.8762 372.616 76.2822C374.022 77.6882 374.813 79.5945 374.815 81.5829V310.583Z" fill="#3F3D56"/>
<path d="M314.815 95.0829H222.815C221.622 95.0815 220.478 94.607 219.635 93.7634C218.791 92.9197 218.317 91.7759 218.315 90.5829V68.5829C218.317 67.3898 218.791 66.246 219.635 65.4024C220.478 64.5587 221.622 64.0842 222.815 64.0829H314.815C316.008 64.0842 317.152 64.5587 317.996 65.4024C318.839 66.246 319.314 67.3898 319.315 68.5829V90.5829C319.314 91.7759 318.839 92.9197 317.996 93.7634C317.152 94.607 316.008 95.0815 314.815 95.0829Z" fill="#43B699"/>
<path d="M268.815 65.5829C274.338 65.5829 278.815 61.1057 278.815 55.5829C278.815 50.06 274.338 45.5829 268.815 45.5829C263.292 45.5829 258.815 50.06 258.815 55.5829C258.815 61.1057 263.292 65.5829 268.815 65.5829Z" fill="#43B699"/>
<path d="M268.815 61.6738C272.179 61.6738 274.906 58.9468 274.906 55.5829C274.906 52.2189 272.179 49.4919 268.815 49.4919C265.451 49.4919 262.724 52.2189 262.724 55.5829C262.724 58.9468 265.451 61.6738 268.815 61.6738Z" fill="white"/>
</svg>
