<svg width="486" height="400" viewBox="0 0 486 400" fill="none" xmlns="http://www.w3.org/2000/svg">
<path fill-rule="evenodd" clip-rule="evenodd" d="M224.062 5.07438C291.175 1.09545 364.609 -11.5569 414.012 28.3711C470.688 74.1766 499.245 146.587 480.036 211.954C461.285 275.763 389.005 308.696 322.53 339.686C250.729 373.16 171.238 420.801 97.8103 390.146C24.2575 359.439 7.95598 276.42 0.889096 205.406C-4.87199 147.514 17.5072 90.7515 63.8745 49.1298C104.971 12.2397 165.307 8.55777 224.062 5.07438Z" fill="#CABBF1"/>
<path d="M254.57 74.0828H167.315C165.327 74.0853 163.421 74.8762 162.015 76.2822C160.609 77.6882 159.818 79.5945 159.815 81.5828V275.508L158.815 275.813L137.41 282.368C136.396 282.677 135.3 282.571 134.364 282.074C133.427 281.576 132.726 280.727 132.415 279.713L68.7452 71.7378C68.4353 70.7234 68.5409 69.6274 69.0388 68.6908C69.5366 67.7542 70.386 67.0535 71.4002 66.7429L232.995 17.2728C233.497 17.1184 234.025 17.0644 234.548 17.114C235.07 17.1636 235.578 17.3158 236.042 17.562C236.506 17.8081 236.917 18.1433 237.251 18.5484C237.586 18.9535 237.837 19.4206 237.99 19.9228L254.265 73.0828L254.57 74.0828Z" fill="#F2F2F2"/>
<path d="M253.995 9.01285C253.669 7.94532 253.135 6.95256 252.425 6.0913C251.715 5.23004 250.842 4.51715 249.856 3.99338C248.87 3.46961 247.791 3.14521 246.68 3.03874C245.569 2.93226 244.447 3.0458 243.38 3.37285L55.0103 61.0429C52.856 61.7044 51.0521 63.1936 49.9947 65.1838C48.9373 67.1739 48.7126 69.5023 49.3702 71.6579L116.41 290.623C116.944 292.363 118.022 293.886 119.485 294.968C120.949 296.051 122.72 296.636 124.54 296.638C125.383 296.638 126.22 296.512 127.025 296.263L158.815 286.533L159.815 286.223V285.178L158.815 285.483L126.73 295.308C124.829 295.888 122.775 295.689 121.019 294.757C119.264 293.824 117.949 292.233 117.365 290.333L50.3304 71.3629C50.0409 70.4213 49.94 69.4319 50.0335 68.4513C50.127 67.4707 50.4129 66.5182 50.875 65.6483C51.3371 64.7784 51.9663 64.0082 52.7265 63.3818C53.4867 62.7554 54.363 62.2851 55.3052 61.9979L243.675 4.32785C244.39 4.10975 245.133 3.99855 245.88 3.99785C247.484 4.00145 249.044 4.51843 250.332 5.47307C251.621 6.4277 252.57 7.76982 253.04 9.30285L272.565 73.0829L272.875 74.0829H273.915L253.995 9.01285Z" fill="#3F3D56"/>
<path d="M110.338 66.9063C109.374 66.9056 108.436 66.5961 107.661 66.0232C106.886 65.4503 106.315 64.6441 106.032 63.723L99.5917 42.6871C99.4187 42.122 99.3586 41.5284 99.415 40.9402C99.4714 40.3519 99.6431 39.7805 99.9203 39.2586C100.198 38.7367 100.575 38.2745 101.031 37.8985C101.487 37.5224 102.012 37.2399 102.577 37.067L190.547 10.1351C191.688 9.78686 192.921 9.90562 193.974 10.4653C195.028 11.025 195.817 11.9799 196.167 13.1204L202.607 34.1566C202.955 35.2978 202.837 36.5304 202.277 37.5841C201.717 38.6377 200.762 39.4263 199.622 39.7769L111.652 66.7088C111.226 66.8396 110.783 66.9061 110.338 66.9063Z" fill="#6033D5"/>
<path d="M144.074 25.4733C149.597 25.4733 154.074 20.9961 154.074 15.4733C154.074 9.95041 149.597 5.47326 144.074 5.47326C138.551 5.47326 134.074 9.95041 134.074 15.4733C134.074 20.9961 138.551 25.4733 144.074 25.4733Z" fill="#6033D5"/>
<path d="M144.074 21.8056C147.571 21.8056 150.406 18.9705 150.406 15.4733C150.406 11.976 147.571 9.14095 144.074 9.14095C140.577 9.14095 137.742 11.976 137.742 15.4733C137.742 18.9705 140.577 21.8056 144.074 21.8056Z" fill="white"/>
<path d="M350.315 294.083H181.315C180.189 294.082 179.108 293.633 178.312 292.837C177.515 292.04 177.067 290.96 177.065 289.833V87.3328C177.067 86.2061 177.515 85.1258 178.312 84.329C179.108 83.5323 180.189 83.0841 181.315 83.0828H350.315C351.442 83.0841 352.522 83.5323 353.319 84.3291C354.116 85.1258 354.564 86.2061 354.565 87.3328V289.833C354.564 290.96 354.116 292.04 353.319 292.837C352.522 293.633 351.442 294.082 350.315 294.083Z" fill="#E6E6E6"/>
<path d="M272.565 73.0829L167.315 73.0828C165.062 73.086 162.902 73.9826 161.308 75.576C159.715 77.1693 158.818 79.3295 158.815 81.5828V285.483L159.815 285.178L159.815 81.5828C159.818 79.5945 160.609 77.6882 162.015 76.2822C163.421 74.8762 165.327 74.0853 167.315 74.0828L272.875 74.0829L272.565 73.0829ZM364.315 73.0828H167.315C165.062 73.086 162.902 73.9826 161.308 75.576C159.715 77.1693 158.818 79.3295 158.815 81.5828V310.583C158.818 312.836 159.715 314.996 161.308 316.59C162.902 318.183 165.062 319.08 167.315 319.083H364.315C366.569 319.08 368.729 318.183 370.322 316.59C371.915 314.996 372.812 312.836 372.815 310.583V81.5828C372.812 79.3295 371.915 77.1693 370.322 75.576C368.729 73.9826 366.569 73.086 364.315 73.0828ZM371.815 310.583C371.813 312.571 371.022 314.477 369.616 315.883C368.21 317.289 366.304 318.08 364.315 318.083H167.315C165.327 318.08 163.421 317.289 162.015 315.883C160.609 314.477 159.818 312.571 159.815 310.583L159.815 81.5828C159.818 79.5945 160.609 77.6882 162.015 76.2822C163.421 74.8762 165.327 74.0853 167.315 74.0828H364.315C366.304 74.0853 368.21 74.8762 369.616 76.2822C371.022 77.6882 371.813 79.5945 371.815 81.5828V310.583Z" fill="#3F3D56"/>
<path d="M311.815 95.0828H219.815C218.622 95.0815 217.478 94.607 216.635 93.7633C215.791 92.9197 215.317 91.7759 215.315 90.5828V68.5828C215.317 67.3898 215.791 66.246 216.635 65.4024C217.478 64.5587 218.622 64.0842 219.815 64.0828H311.815C313.008 64.0842 314.152 64.5587 314.996 65.4024C315.839 66.246 316.314 67.3898 316.315 68.5828V90.5828C316.314 91.7759 315.839 92.9197 314.996 93.7633C314.152 94.607 313.008 95.0815 311.815 95.0828Z" fill="#6033D5"/>
<path d="M265.815 65.5829C271.338 65.5829 275.815 61.1057 275.815 55.5829C275.815 50.06 271.338 45.5829 265.815 45.5829C260.292 45.5829 255.815 50.06 255.815 55.5829C255.815 61.1057 260.292 65.5829 265.815 65.5829Z" fill="#6033D5"/>
<path d="M265.815 61.6738C269.179 61.6738 271.906 58.9468 271.906 55.5829C271.906 52.2189 269.179 49.4919 265.815 49.4919C262.451 49.4919 259.724 52.2189 259.724 55.5829C259.724 58.9468 262.451 61.6738 265.815 61.6738Z" fill="white"/>
</svg>
